<svg version="1.1" xmlns="http://www.w3.org/2000/svg" xmlns:xlink="http://www.w3.org/1999/xlink" width="260.92868" height="177.44964" viewBox="0,0,260.92868,177.44964"><g transform="translate(-108.2639,-83.61409)"><g fill="none" fill-rule="nonzero" stroke="#000000" stroke-linejoin="miter" stroke-miterlimit="10" stroke-dasharray="" stroke-dashoffset="0" style="mix-blend-mode: normal"><path d="M208.87627,249.90641c0,0 4.79128,-7.63871 44.44709,-73.00155c31.68716,-52.22849 35.22091,-66.74584 57.16945,-66.55905c18.44609,-0.1264 48.71698,39.57996 48.69977,39.88381c-0.05725,1.0108 -23.21408,4.47195 -23.66278,5.16628c-0.40733,0.63033 12.37953,57.94063 0.19614,75.71781c-16.91035,24.67443 -60.67568,19.95002 -60.67568,19.95002" stroke-width="20" stroke-linecap="round"/><path d="M140.7874,249.48836l-21.13686,-35.09316l35.22123,-71.37247l35.34452,71.21103l-21.20043,35.3157"  stroke-width="20" stroke-linecap="round"/><path d="M189.03533,92.4344l18.00426,-0.05687l13.67502,17.40591c0,0 -4.18488,8.43626 -6.96759,14.04591c-4.15791,8.3819 -15.55594,32.05521 -15.55594,32.05521l-22.70032,-45.88355z"  stroke-width="17.5" stroke-linecap="butt"/></g></g></svg>