<?xml version="1.0" standalone="no"?>
<!DOCTYPE svg PUBLIC "-//W3C//DTD SVG 20010904//EN"
 "http://www.w3.org/TR/2001/REC-SVG-20010904/DTD/svg10.dtd">
<svg version="1.0" xmlns="http://www.w3.org/2000/svg"
 width="700.000000pt" height="700.000000pt" viewBox="0 0 700.000000 700.000000"
 preserveAspectRatio="xMidYMid meet">
<metadata>
Created by potrace 1.14, written by Peter Selinger 2001-2017
</metadata>
<g transform="translate(0.000000,700.000000) scale(0.100000,-0.100000)"
fill="#000000" stroke="none">
<path d="M2201 5213 c-96 -125 -174 -232 -174 -238 0 -5 134 -280 297 -609
183 -370 300 -596 306 -590 5 5 92 180 193 389 101 209 232 476 291 592 58
117 106 217 106 223 0 5 -80 111 -177 235 l-176 225 -246 0 -246 0 -174 -227z
m660 -119 l106 -137 -169 -346 c-94 -190 -172 -348 -174 -350 -8 -9 -344 690
-337 702 4 7 49 67 101 134 l94 122 51 4 c29 2 90 4 137 5 l85 2 106 -136z"/>
<path d="M4782 5075 c-120 -27 -206 -78 -317 -190 -139 -138 -210 -246 -590
-895 -60 -102 -343 -570 -629 -1040 -286 -470 -524 -871 -530 -891 -12 -46 15
-104 64 -137 41 -28 107 -26 147 4 27 20 823 1321 1217 1989 349 591 422 702
526 799 76 71 145 99 255 104 74 3 100 0 146 -17 135 -51 358 -232 566 -460
62 -68 113 -126 113 -130 0 -4 -57 -18 -127 -31 -152 -27 -195 -42 -228 -82
-33 -38 -33 -85 0 -277 103 -614 111 -1072 22 -1264 -88 -190 -322 -328 -653
-388 -94 -18 -166 -23 -346 -25 -125 -1 -235 -7 -245 -12 -95 -51 -95 -189 -1
-238 72 -38 457 -28 683 17 288 58 500 163 660 324 124 126 175 228 212 426
14 75 18 145 17 344 0 261 -11 391 -60 719 -14 93 -23 175 -20 182 3 8 14 14
24 14 46 0 327 62 363 81 114 58 98 152 -59 346 -114 141 -393 422 -512 517
-102 81 -220 152 -315 191 -62 25 -85 29 -195 32 -82 2 -147 -2 -188 -12z"/>
<path d="M1618 4378 c-609 -1230 -789 -1602 -784 -1615 4 -9 115 -196 248
-415 177 -294 249 -405 272 -420 45 -28 117 -20 157 18 42 40 56 93 37 141 -8
21 -105 187 -215 368 l-200 330 292 590 292 590 293 -587 294 -586 -212 -354
c-181 -302 -212 -359 -212 -393 0 -76 59 -135 135 -135 74 0 82 10 346 451
l250 416 -445 897 c-244 493 -446 896 -449 896 -2 0 -47 -87 -99 -192z"/>
</g>
</svg>
